<svg width="172" height="49" viewBox="0 0 172 49" fill="none" xmlns="http://www.w3.org/2000/svg">
<path d="M23.3906 31V15H26.7734V28.2109H33.6328V31H23.3906ZM39.0391 31H35.4141L40.9375 15H45.2969L50.8125 31H47.1875L43.1797 18.6562H43.0547L39.0391 31ZM38.8125 24.7109H47.375V27.3516H38.8125V24.7109ZM52.7383 31V15H59.1445C60.3216 15 61.3034 15.1745 62.0898 15.5234C62.8763 15.8724 63.4674 16.3568 63.8633 16.9766C64.2591 17.5911 64.457 18.2995 64.457 19.1016C64.457 19.7266 64.332 20.276 64.082 20.75C63.832 21.2187 63.4883 21.6042 63.0508 21.9062C62.6185 22.2031 62.1237 22.4141 61.5664 22.5391V22.6953C62.1758 22.7214 62.7461 22.8932 63.2773 23.2109C63.8138 23.5286 64.2487 23.974 64.582 24.5469C64.9154 25.1146 65.082 25.7917 65.082 26.5781C65.082 27.4271 64.8711 28.1849 64.4492 28.8516C64.0326 29.513 63.4154 30.0365 62.5977 30.4219C61.7799 30.8073 60.7721 31 59.5742 31H52.7383ZM56.1211 28.2344H58.8789C59.8216 28.2344 60.5091 28.0547 60.9414 27.6953C61.3737 27.3307 61.5898 26.8464 61.5898 26.2422C61.5898 25.7995 61.4831 25.4089 61.2695 25.0703C61.056 24.7318 60.7513 24.4661 60.3555 24.2734C59.9648 24.0807 59.4987 23.9844 58.957 23.9844H56.1211V28.2344ZM56.1211 21.6953H58.6289C59.0924 21.6953 59.5039 21.6146 59.8633 21.4531C60.2279 21.2865 60.5143 21.0521 60.7227 20.75C60.9362 20.4479 61.043 20.0859 61.043 19.6641C61.043 19.0859 60.8372 18.6198 60.4258 18.2656C60.0195 17.9115 59.4414 17.7344 58.6914 17.7344H56.1211V21.6953ZM67.2832 15H71.4551L75.8613 25.75H76.0488L80.4551 15H84.627V31H81.3457V20.5859H81.2129L77.0723 30.9219H74.8379L70.6973 20.5469H70.5645V31H67.2832V15ZM102.117 23C102.117 24.7448 101.786 26.2292 101.125 27.4531C100.469 28.6771 99.5729 29.612 98.4375 30.2578C97.3073 30.8984 96.0365 31.2187 94.625 31.2187C93.2031 31.2187 91.9271 30.8958 90.7969 30.25C89.6667 29.6042 88.7734 28.6693 88.1172 27.4453C87.4609 26.2214 87.1328 24.7396 87.1328 23C87.1328 21.2552 87.4609 19.7708 88.1172 18.5469C88.7734 17.3229 89.6667 16.3906 90.7969 15.75C91.9271 15.1042 93.2031 14.7812 94.625 14.7812C96.0365 14.7812 97.3073 15.1042 98.4375 15.75C99.5729 16.3906 100.469 17.3229 101.125 18.5469C101.786 19.7708 102.117 21.2552 102.117 23ZM98.6875 23C98.6875 21.8698 98.5182 20.9167 98.1797 20.1406C97.8464 19.3646 97.375 18.776 96.7656 18.375C96.1563 17.974 95.4427 17.7734 94.625 17.7734C93.8073 17.7734 93.0938 17.974 92.4844 18.375C91.875 18.776 91.401 19.3646 91.0625 20.1406C90.7292 20.9167 90.5625 21.8698 90.5625 23C90.5625 24.1302 90.7292 25.0833 91.0625 25.8594C91.401 26.6354 91.875 27.224 92.4844 27.625C93.0938 28.026 93.8073 28.2266 94.625 28.2266C95.4427 28.2266 96.1563 28.026 96.7656 27.625C97.375 27.224 97.8464 26.6354 98.1797 25.8594C98.5182 25.0833 98.6875 24.1302 98.6875 23ZM118.006 15V31H115.084L108.123 20.9297H108.006V31H104.623V15H107.592L114.498 25.0625H114.639V15H118.006ZM124.184 15V31H120.801V15H124.184ZM126.357 17.7891V15H139.498V17.7891H134.6V31H131.256V17.7891H126.357ZM155.635 23C155.635 24.7448 155.304 26.2292 154.643 27.4531C153.986 28.6771 153.09 29.612 151.955 30.2578C150.825 30.8984 149.554 31.2187 148.143 31.2187C146.721 31.2187 145.445 30.8958 144.314 30.25C143.184 29.6042 142.291 28.6693 141.635 27.4453C140.979 26.2214 140.65 24.7396 140.65 23C140.65 21.2552 140.979 19.7708 141.635 18.5469C142.291 17.3229 143.184 16.3906 144.314 15.75C145.445 15.1042 146.721 14.7812 148.143 14.7812C149.554 14.7812 150.825 15.1042 151.955 15.75C153.09 16.3906 153.986 17.3229 154.643 18.5469C155.304 19.7708 155.635 21.2552 155.635 23ZM152.205 23C152.205 21.8698 152.036 20.9167 151.697 20.1406C151.364 19.3646 150.893 18.776 150.283 18.375C149.674 17.974 148.96 17.7734 148.143 17.7734C147.325 17.7734 146.611 17.974 146.002 18.375C145.393 18.776 144.919 19.3646 144.58 20.1406C144.247 20.9167 144.08 21.8698 144.08 23C144.08 24.1302 144.247 25.0833 144.58 25.8594C144.919 26.6354 145.393 27.224 146.002 27.625C146.611 28.026 147.325 28.2266 148.143 28.2266C148.96 28.2266 149.674 28.026 150.283 27.625C150.893 27.224 151.364 26.6354 151.697 25.8594C152.036 25.0833 152.205 24.1302 152.205 23ZM158.141 31V15H164.453C165.661 15 166.693 15.2161 167.547 15.6484C168.406 16.0755 169.06 16.6823 169.508 17.4688C169.961 18.25 170.188 19.1693 170.188 20.2266C170.188 21.2891 169.958 22.2031 169.5 22.9687C169.042 23.7292 168.378 24.3125 167.508 24.7187C166.643 25.125 165.596 25.3281 164.367 25.3281H160.141V22.6094H163.82C164.466 22.6094 165.003 22.5208 165.43 22.3438C165.857 22.1667 166.174 21.901 166.383 21.5469C166.596 21.1927 166.703 20.7526 166.703 20.2266C166.703 19.6953 166.596 19.2474 166.383 18.8828C166.174 18.5182 165.854 18.2422 165.422 18.0547C164.995 17.862 164.456 17.7656 163.805 17.7656H161.523V31H158.141ZM166.781 23.7188L170.758 31H167.023L163.133 23.7188H166.781Z" fill="black"/>
<mask id="path-2-inside-1_7_2" fill="white">
<path d="M34.881 37.7303C32.3385 39.7447 29.2861 41.0128 26.0646 41.393C22.8432 41.7732 19.5794 41.2505 16.6378 39.8833C13.6962 38.5161 11.1924 36.3582 9.40609 33.6506C7.61977 30.9429 6.62117 27.792 6.52179 24.5497C6.42241 21.3074 7.22615 18.1013 8.84329 15.2893C10.4604 12.4774 12.8273 10.1702 15.6797 8.62541C18.5321 7.08063 21.7577 6.35904 24.9964 6.54122C28.2351 6.72339 31.3594 7.80215 34.0206 9.65706L32.2989 12.127C30.0956 10.5912 27.5088 9.69803 24.8273 9.5472C22.1458 9.39636 19.4751 9.9938 17.1135 11.2728C14.7518 12.5518 12.7921 14.4621 11.4532 16.7903C10.1143 19.1185 9.44882 21.773 9.5311 24.4575C9.61339 27.142 10.4402 29.7508 11.9192 31.9926C13.3982 34.2345 15.4712 36.0211 17.9067 37.1531C20.3423 38.285 23.0445 38.7178 25.7118 38.403C28.379 38.0882 30.9063 37.0383 33.0114 35.3705L34.881 37.7303Z"/>
</mask>
<path d="M34.881 37.7303C32.3385 39.7447 29.2861 41.0128 26.0646 41.393C22.8432 41.7732 19.5794 41.2505 16.6378 39.8833C13.6962 38.5161 11.1924 36.3582 9.40609 33.6506C7.61977 30.9429 6.62117 27.792 6.52179 24.5497C6.42241 21.3074 7.22615 18.1013 8.84329 15.2893C10.4604 12.4774 12.8273 10.1702 15.6797 8.62541C18.5321 7.08063 21.7577 6.35904 24.9964 6.54122C28.2351 6.72339 31.3594 7.80215 34.0206 9.65706L32.2989 12.127C30.0956 10.5912 27.5088 9.69803 24.8273 9.5472C22.1458 9.39636 19.4751 9.9938 17.1135 11.2728C14.7518 12.5518 12.7921 14.4621 11.4532 16.7903C10.1143 19.1185 9.44882 21.773 9.5311 24.4575C9.61339 27.142 10.4402 29.7508 11.9192 31.9926C13.3982 34.2345 15.4712 36.0211 17.9067 37.1531C20.3423 38.285 23.0445 38.7178 25.7118 38.403C28.379 38.0882 30.9063 37.0383 33.0114 35.3705L34.881 37.7303Z" stroke="#5D17F0" stroke-width="4" mask="url(#path-2-inside-1_7_2)"/>
</svg>
